<svg width="24" height="24" viewBox="0 0 16 16"  xmlns="http://www.w3.org/2000/svg" class="svg-icon " xmlns:xlink="http://www.w3.org/1999/xlink"><path  fill-rule="evenodd" clip-rule="evenodd" d="M8 0C12.4183 0 16 3.58172 16 8C16 12.4183 12.4183 16 8 16C3.58172 16 0 12.4183 0 8C0 3.58172 3.58172 0 8 0ZM5.728 10.688C5.97809 10.9876 6.22127 11.2526 6.45753 11.4829C7.13367 12.1138 7.61576 12.5208 7.9038 12.704C8.31257 12.4626 8.72953 12.1647 9.15469 11.8103C9.54405 11.4858 9.90582 11.134 10.24 10.7548C9.57941 10.8335 8.91537 10.8729 8.24789 10.8729C7.41482 10.8729 6.57486 10.8113 5.728 10.688ZM4.384 8.128C4.46757 8.37375 4.56903 8.6195 4.68837 8.86525C4.81436 9.12467 4.95823 9.38409 5.12 9.64352C5.96674 9.85002 7.029 9.96352 8.30677 9.984C9.237 9.984 10.1417 9.90293 11.0208 9.7408C11.173 9.49811 11.3064 9.25798 11.4212 9.02041C11.5475 8.75878 11.6551 8.49971 11.744 8.2432C10.5395 8.51626 9.40311 8.64512 8.33489 8.62976C6.83733 8.60757 5.52037 8.44032 4.384 8.128ZM3.99114 5.664C3.97571 5.81265 3.968 6.00146 3.968 6.23042C3.968 6.59266 3.998 6.92756 4.058 7.23513C5.14998 7.60591 6.55568 7.80753 8.27508 7.84C9.4905 7.84 10.7042 7.68707 11.9162 7.38122C11.9727 7.07195 12.0007 6.75926 12 6.44315C12.0007 6.21248 11.9882 5.9989 11.9625 5.8024C10.7693 6.10313 9.51964 6.25349 8.21337 6.25349C6.63282 6.22615 5.22541 6.02966 3.99114 5.664ZM7.87062 3.29602L7.81561 3.2961C7.35459 3.29393 6.90557 3.32644 6.46854 3.39363C6.03151 3.46082 5.60648 3.56269 5.19344 3.69923C5.07476 3.73478 4.9655 3.78246 4.86567 3.84228C4.76584 3.9021 4.67544 3.97406 4.59446 4.05815C4.48006 4.17866 4.38623 4.30437 4.31296 4.43528C4.23969 4.56619 4.18871 4.7023 4.16 4.84361C5.43681 5.21987 6.80702 5.408 8.27064 5.408C9.58172 5.408 10.7608 5.26668 11.808 4.98406C11.7746 4.82801 11.724 4.68409 11.6563 4.55232C11.5886 4.42054 11.5038 4.3009 11.4018 4.1934C11.2904 4.08589 11.1739 4.00007 11.0522 3.93591C10.9305 3.87176 10.7883 3.8102 10.6254 3.75125C10.1657 3.59737 9.70169 3.4825 9.23338 3.40664C8.76508 3.33078 8.29249 3.29393 7.81561 3.2961L7.87062 3.29602Z" fill="white"></path></svg>
