<svg width="100" height="100" viewBox="0 0 100 100" fill="none" xmlns="http://www.w3.org/2000/svg">

<path fill-rule="evenodd" clip-rule="evenodd" d="M81.7828 27.9729L81.7828 27.9732C81.8349 28.1818 81.887 28.3904 81.9522 28.599C73.6642 29.4829 62.7961 30.0967 49.9733 30.1212C37.1765 30.1212 26.3344 29.4829 18.0205 28.599C18.0856 28.3903 18.1377 28.1816 18.1899 27.9729C18.242 27.7642 18.2941 27.5555 18.3593 27.3468C23.5979 12.2472 48.9047 12.4191 49.9993 12.5173C51.094 12.4191 76.3748 12.2472 81.6134 27.3468C81.6785 27.5555 81.7306 27.7642 81.7828 27.9729ZM82.9433 32.9711C83.7252 38.1025 83.2822 43.3075 82.0572 48.2671C73.7432 49.151 62.849 49.7893 50.0001 49.7893C37.1252 49.7893 26.257 49.151 17.943 48.2671C16.7181 43.3075 16.275 38.1025 17.0569 32.9711C30.1404 34.3951 45.1785 34.5424 50.0001 34.5424C54.8217 34.5424 69.8599 34.3951 82.9433 32.9711ZM80.6792 52.8789C68.1692 54.1065 54.5384 54.2047 50.0035 54.2047C45.4686 54.2047 31.8117 54.0819 19.3277 52.8789C19.9532 54.7203 20.6569 56.5126 21.4649 58.2313C22.9504 61.4721 24.6445 64.3448 26.4168 66.9718C33.2191 67.4629 41.1422 67.7575 50.0295 67.7575C58.9169 67.7575 66.84 67.4629 73.6423 66.9718C75.4146 64.3448 77.1087 61.4721 78.5942 58.2313C79.35 56.5126 80.0537 54.7203 80.6792 52.8789ZM49.953 87.5003C49.953 87.5003 39.3455 83.1791 29.8326 71.615C38.7199 72.1061 46.7212 72.1552 50.0051 72.1552C53.289 72.1552 61.2902 72.1061 70.1776 71.615C60.6647 83.2036 50.0572 87.5003 50.0572 87.5003H49.953Z" fill="white"/>

</svg>
